<mxfile host="Electron" agent="Mozilla/5.0 (Windows NT 10.0; Win64; x64) AppleWebKit/537.36 (KHTML, like Gecko) draw.io/24.7.17 Chrome/128.0.6613.36 Electron/32.0.1 Safari/537.36" version="24.7.17">
  <diagram name="Page-1" id="zVOpG5wDzlXtG6OJru-9">
    <mxGraphModel dx="1332" dy="566" grid="1" gridSize="10" guides="1" tooltips="1" connect="1" arrows="1" fold="1" page="1" pageScale="1" pageWidth="1400" pageHeight="850" math="0" shadow="0">
      <root>
        <mxCell id="0" />
        <mxCell id="1" parent="0" />
        <mxCell id="i6O-RqYLOl85bxOElG3H-1" value="User" style="swimlane;fontStyle=0;childLayout=stackLayout;horizontal=1;startSize=30;horizontalStack=0;resizeParent=1;resizeParentMax=0;resizeLast=0;collapsible=1;marginBottom=0;whiteSpace=wrap;html=1;labelBackgroundColor=none;fillColor=#09555B;strokeColor=#BAC8D3;fontColor=#EEEEEE;movable=0;resizable=0;rotatable=0;deletable=0;editable=0;locked=1;connectable=0;" parent="1" vertex="1">
          <mxGeometry x="260" y="180" width="200" height="480" as="geometry" />
        </mxCell>
        <mxCell id="i6O-RqYLOl85bxOElG3H-10" value="Administration:" style="text;strokeColor=none;fillColor=none;align=left;verticalAlign=middle;spacingLeft=4;spacingRight=4;overflow=hidden;points=[[0,0.5],[1,0.5]];portConstraint=eastwest;rotatable=0;whiteSpace=wrap;html=1;labelBackgroundColor=none;fontColor=#EEEEEE;movable=0;resizable=0;deletable=0;editable=0;locked=1;connectable=0;" parent="i6O-RqYLOl85bxOElG3H-1" vertex="1">
          <mxGeometry y="30" width="200" height="30" as="geometry" />
        </mxCell>
        <mxCell id="i6O-RqYLOl85bxOElG3H-11" value="&lt;span style=&quot;white-space: pre;&quot;&gt;&#x9;&lt;/span&gt;get all users" style="text;strokeColor=none;fillColor=none;align=left;verticalAlign=middle;spacingLeft=4;spacingRight=4;overflow=hidden;points=[[0,0.5],[1,0.5]];portConstraint=eastwest;rotatable=0;whiteSpace=wrap;html=1;labelBackgroundColor=none;fontColor=#EEEEEE;fontFamily=Helvetica;movable=0;resizable=0;deletable=0;editable=0;locked=1;connectable=0;" parent="i6O-RqYLOl85bxOElG3H-1" vertex="1">
          <mxGeometry y="60" width="200" height="30" as="geometry" />
        </mxCell>
        <mxCell id="i6O-RqYLOl85bxOElG3H-12" value="&lt;span style=&quot;white-space: pre;&quot;&gt;&#x9;&lt;/span&gt;get a user" style="text;strokeColor=none;fillColor=none;align=left;verticalAlign=middle;spacingLeft=4;spacingRight=4;overflow=hidden;points=[[0,0.5],[1,0.5]];portConstraint=eastwest;rotatable=0;whiteSpace=wrap;html=1;labelBackgroundColor=none;fontColor=#EEEEEE;fontFamily=Helvetica;movable=0;resizable=0;deletable=0;editable=0;locked=1;connectable=0;" parent="i6O-RqYLOl85bxOElG3H-1" vertex="1">
          <mxGeometry y="90" width="200" height="30" as="geometry" />
        </mxCell>
        <mxCell id="i6O-RqYLOl85bxOElG3H-13" value="&lt;span style=&quot;white-space: pre;&quot;&gt;&#x9;&lt;/span&gt;create a user" style="text;strokeColor=none;fillColor=none;align=left;verticalAlign=middle;spacingLeft=4;spacingRight=4;overflow=hidden;points=[[0,0.5],[1,0.5]];portConstraint=eastwest;rotatable=0;whiteSpace=wrap;html=1;labelBackgroundColor=none;fontColor=#EEEEEE;fontFamily=Helvetica;movable=0;resizable=0;deletable=0;editable=0;locked=1;connectable=0;" parent="i6O-RqYLOl85bxOElG3H-1" vertex="1">
          <mxGeometry y="120" width="200" height="30" as="geometry" />
        </mxCell>
        <mxCell id="i6O-RqYLOl85bxOElG3H-14" value="&lt;span style=&quot;white-space: pre;&quot;&gt;&#x9;&lt;/span&gt;update a user" style="text;strokeColor=none;fillColor=none;align=left;verticalAlign=middle;spacingLeft=4;spacingRight=4;overflow=hidden;points=[[0,0.5],[1,0.5]];portConstraint=eastwest;rotatable=0;whiteSpace=wrap;html=1;labelBackgroundColor=none;fontColor=#EEEEEE;fontFamily=Helvetica;movable=0;resizable=0;deletable=0;editable=0;locked=1;connectable=0;" parent="i6O-RqYLOl85bxOElG3H-1" vertex="1">
          <mxGeometry y="150" width="200" height="30" as="geometry" />
        </mxCell>
        <mxCell id="i6O-RqYLOl85bxOElG3H-32" value="&lt;span style=&quot;white-space: pre;&quot;&gt;&#x9;&lt;/span&gt;delete a user" style="text;strokeColor=none;fillColor=none;align=left;verticalAlign=middle;spacingLeft=4;spacingRight=4;overflow=hidden;points=[[0,0.5],[1,0.5]];portConstraint=eastwest;rotatable=0;whiteSpace=wrap;html=1;labelBackgroundColor=none;fontColor=#EEEEEE;fontFamily=Helvetica;movable=0;resizable=0;deletable=0;editable=0;locked=1;connectable=0;" parent="i6O-RqYLOl85bxOElG3H-1" vertex="1">
          <mxGeometry y="180" width="200" height="30" as="geometry" />
        </mxCell>
        <mxCell id="i6O-RqYLOl85bxOElG3H-2" value="All Users:" style="text;strokeColor=none;fillColor=none;align=left;verticalAlign=middle;spacingLeft=4;spacingRight=4;overflow=hidden;points=[[0,0.5],[1,0.5]];portConstraint=eastwest;rotatable=0;whiteSpace=wrap;html=1;labelBackgroundColor=none;fontColor=#EEEEEE;fontFamily=Helvetica;movable=0;resizable=0;deletable=0;editable=0;locked=1;connectable=0;" parent="i6O-RqYLOl85bxOElG3H-1" vertex="1">
          <mxGeometry y="210" width="200" height="30" as="geometry" />
        </mxCell>
        <mxCell id="i6O-RqYLOl85bxOElG3H-7" value="&lt;span style=&quot;white-space: pre;&quot;&gt;&#x9;&lt;/span&gt;update password" style="text;strokeColor=none;fillColor=none;align=left;verticalAlign=middle;spacingLeft=4;spacingRight=4;overflow=hidden;points=[[0,0.5],[1,0.5]];portConstraint=eastwest;rotatable=0;whiteSpace=wrap;html=1;labelBackgroundColor=none;fontColor=#EEEEEE;fontFamily=Helvetica;movable=0;resizable=0;deletable=0;editable=0;locked=1;connectable=0;" parent="i6O-RqYLOl85bxOElG3H-1" vertex="1">
          <mxGeometry y="240" width="200" height="30" as="geometry" />
        </mxCell>
        <mxCell id="i6O-RqYLOl85bxOElG3H-8" value="&lt;span style=&quot;white-space: pre;&quot;&gt;&#x9;&lt;/span&gt;update account" style="text;strokeColor=none;fillColor=none;align=left;verticalAlign=middle;spacingLeft=4;spacingRight=4;overflow=hidden;points=[[0,0.5],[1,0.5]];portConstraint=eastwest;rotatable=0;whiteSpace=wrap;html=1;labelBackgroundColor=none;fontColor=#EEEEEE;fontFamily=Helvetica;movable=0;resizable=0;deletable=0;editable=0;locked=1;connectable=0;" parent="i6O-RqYLOl85bxOElG3H-1" vertex="1">
          <mxGeometry y="270" width="200" height="30" as="geometry" />
        </mxCell>
        <mxCell id="i6O-RqYLOl85bxOElG3H-9" value="&lt;span style=&quot;white-space: pre;&quot;&gt;&#x9;&lt;/span&gt;delete account" style="text;strokeColor=none;fillColor=none;align=left;verticalAlign=middle;spacingLeft=4;spacingRight=4;overflow=hidden;points=[[0,0.5],[1,0.5]];portConstraint=eastwest;rotatable=0;whiteSpace=wrap;html=1;labelBackgroundColor=none;fontColor=#EEEEEE;fontFamily=Helvetica;movable=0;resizable=0;deletable=0;editable=0;locked=1;connectable=0;" parent="i6O-RqYLOl85bxOElG3H-1" vertex="1">
          <mxGeometry y="300" width="200" height="30" as="geometry" />
        </mxCell>
        <mxCell id="i6O-RqYLOl85bxOElG3H-65" value="Public:" style="text;strokeColor=none;fillColor=none;align=left;verticalAlign=middle;spacingLeft=4;spacingRight=4;overflow=hidden;points=[[0,0.5],[1,0.5]];portConstraint=eastwest;rotatable=0;whiteSpace=wrap;html=1;shadow=1;labelBackgroundColor=none;fontColor=#EEEEEE;fontFamily=Helvetica;movable=0;resizable=0;deletable=0;editable=0;locked=1;connectable=0;" parent="i6O-RqYLOl85bxOElG3H-1" vertex="1">
          <mxGeometry y="330" width="200" height="30" as="geometry" />
        </mxCell>
        <mxCell id="i6O-RqYLOl85bxOElG3H-3" value="&lt;span style=&quot;white-space: pre;&quot;&gt;&#x9;&lt;/span&gt;login" style="text;strokeColor=none;fillColor=none;align=left;verticalAlign=middle;spacingLeft=4;spacingRight=4;overflow=hidden;points=[[0,0.5],[1,0.5]];portConstraint=eastwest;rotatable=0;whiteSpace=wrap;html=1;labelBackgroundColor=none;fontColor=#EEEEEE;fontFamily=Helvetica;movable=0;resizable=0;deletable=0;editable=0;locked=1;connectable=0;" parent="i6O-RqYLOl85bxOElG3H-1" vertex="1">
          <mxGeometry y="360" width="200" height="30" as="geometry" />
        </mxCell>
        <mxCell id="i6O-RqYLOl85bxOElG3H-4" value="&lt;span style=&quot;white-space: pre;&quot;&gt;&#x9;&lt;/span&gt;sign up" style="text;strokeColor=none;fillColor=none;align=left;verticalAlign=middle;spacingLeft=4;spacingRight=4;overflow=hidden;points=[[0,0.5],[1,0.5]];portConstraint=eastwest;rotatable=0;whiteSpace=wrap;html=1;labelBackgroundColor=none;fontColor=#EEEEEE;fontFamily=Helvetica;movable=0;resizable=0;deletable=0;editable=0;locked=1;connectable=0;" parent="i6O-RqYLOl85bxOElG3H-1" vertex="1">
          <mxGeometry y="390" width="200" height="30" as="geometry" />
        </mxCell>
        <mxCell id="i6O-RqYLOl85bxOElG3H-5" value="&lt;span style=&quot;white-space: pre;&quot;&gt;&#x9;&lt;/span&gt;forgot password" style="text;strokeColor=none;fillColor=none;align=left;verticalAlign=middle;spacingLeft=4;spacingRight=4;overflow=hidden;points=[[0,0.5],[1,0.5]];portConstraint=eastwest;rotatable=0;whiteSpace=wrap;html=1;shadow=1;labelBackgroundColor=none;fontColor=#EEEEEE;fontFamily=Helvetica;movable=0;resizable=0;deletable=0;editable=0;locked=1;connectable=0;" parent="i6O-RqYLOl85bxOElG3H-1" vertex="1">
          <mxGeometry y="420" width="200" height="30" as="geometry" />
        </mxCell>
        <mxCell id="i6O-RqYLOl85bxOElG3H-6" value="&lt;span style=&quot;white-space: pre;&quot;&gt;&#x9;&lt;/span&gt;reset password" style="text;strokeColor=none;fillColor=none;align=left;verticalAlign=middle;spacingLeft=4;spacingRight=4;overflow=hidden;points=[[0,0.5],[1,0.5]];portConstraint=eastwest;rotatable=0;whiteSpace=wrap;html=1;labelBackgroundColor=none;fontColor=#EEEEEE;fontFamily=Helvetica;movable=0;resizable=0;deletable=0;editable=0;locked=1;connectable=0;" parent="i6O-RqYLOl85bxOElG3H-1" vertex="1">
          <mxGeometry y="450" width="200" height="30" as="geometry" />
        </mxCell>
        <mxCell id="i6O-RqYLOl85bxOElG3H-16" value="Visit" style="swimlane;fontStyle=0;childLayout=stackLayout;horizontal=1;startSize=30;horizontalStack=0;resizeParent=1;resizeParentMax=0;resizeLast=0;collapsible=1;marginBottom=0;whiteSpace=wrap;html=1;labelBackgroundColor=none;fillColor=#09555B;strokeColor=#BAC8D3;fontColor=#EEEEEE;movable=0;resizable=0;rotatable=0;deletable=0;editable=0;locked=1;connectable=0;" parent="1" vertex="1">
          <mxGeometry x="500" y="180" width="200" height="630" as="geometry">
            <mxRectangle x="500" y="180" width="60" height="30" as="alternateBounds" />
          </mxGeometry>
        </mxCell>
        <mxCell id="i6O-RqYLOl85bxOElG3H-17" value="Administration:" style="text;strokeColor=none;fillColor=none;align=left;verticalAlign=middle;spacingLeft=4;spacingRight=4;overflow=hidden;points=[[0,0.5],[1,0.5]];portConstraint=eastwest;rotatable=0;whiteSpace=wrap;html=1;labelBackgroundColor=none;fontColor=#EEEEEE;movable=0;resizable=0;deletable=0;editable=0;locked=1;connectable=0;" parent="i6O-RqYLOl85bxOElG3H-16" vertex="1">
          <mxGeometry y="30" width="200" height="30" as="geometry" />
        </mxCell>
        <mxCell id="i6O-RqYLOl85bxOElG3H-41" value="&lt;span style=&quot;white-space: pre;&quot;&gt;&#x9;&lt;/span&gt;get all visits" style="text;strokeColor=none;fillColor=none;align=left;verticalAlign=middle;spacingLeft=4;spacingRight=4;overflow=hidden;points=[[0,0.5],[1,0.5]];portConstraint=eastwest;rotatable=0;whiteSpace=wrap;html=1;labelBackgroundColor=none;fontColor=#EEEEEE;fontFamily=Helvetica;movable=0;resizable=0;deletable=0;editable=0;locked=1;connectable=0;" parent="i6O-RqYLOl85bxOElG3H-16" vertex="1">
          <mxGeometry y="60" width="200" height="30" as="geometry" />
        </mxCell>
        <mxCell id="i6O-RqYLOl85bxOElG3H-42" value="&lt;span style=&quot;white-space: pre;&quot;&gt;&#x9;&lt;/span&gt;get a visit" style="text;strokeColor=none;fillColor=none;align=left;verticalAlign=middle;spacingLeft=4;spacingRight=4;overflow=hidden;points=[[0,0.5],[1,0.5]];portConstraint=eastwest;rotatable=0;whiteSpace=wrap;html=1;labelBackgroundColor=none;fontColor=#EEEEEE;fontFamily=Helvetica;movable=0;resizable=0;deletable=0;editable=0;locked=1;connectable=0;" parent="i6O-RqYLOl85bxOElG3H-16" vertex="1">
          <mxGeometry y="90" width="200" height="30" as="geometry" />
        </mxCell>
        <mxCell id="i6O-RqYLOl85bxOElG3H-43" value="&lt;span style=&quot;white-space: pre;&quot;&gt;&#x9;&lt;/span&gt;create a visit" style="text;strokeColor=none;fillColor=none;align=left;verticalAlign=middle;spacingLeft=4;spacingRight=4;overflow=hidden;points=[[0,0.5],[1,0.5]];portConstraint=eastwest;rotatable=0;whiteSpace=wrap;html=1;labelBackgroundColor=none;fontColor=#EEEEEE;fontFamily=Helvetica;movable=0;resizable=0;deletable=0;editable=0;locked=1;connectable=0;" parent="i6O-RqYLOl85bxOElG3H-16" vertex="1">
          <mxGeometry y="120" width="200" height="30" as="geometry" />
        </mxCell>
        <mxCell id="i6O-RqYLOl85bxOElG3H-44" value="&lt;span style=&quot;white-space: pre;&quot;&gt;&#x9;&lt;/span&gt;update a visit" style="text;strokeColor=none;fillColor=none;align=left;verticalAlign=middle;spacingLeft=4;spacingRight=4;overflow=hidden;points=[[0,0.5],[1,0.5]];portConstraint=eastwest;rotatable=0;whiteSpace=wrap;html=1;labelBackgroundColor=none;fontColor=#EEEEEE;fontFamily=Helvetica;movable=0;resizable=0;deletable=0;editable=0;locked=1;connectable=0;" parent="i6O-RqYLOl85bxOElG3H-16" vertex="1">
          <mxGeometry y="150" width="200" height="30" as="geometry" />
        </mxCell>
        <mxCell id="i6O-RqYLOl85bxOElG3H-45" value="&lt;span style=&quot;white-space: pre;&quot;&gt;&#x9;&lt;/span&gt;delete a visit" style="text;strokeColor=none;fillColor=none;align=left;verticalAlign=middle;spacingLeft=4;spacingRight=4;overflow=hidden;points=[[0,0.5],[1,0.5]];portConstraint=eastwest;rotatable=0;whiteSpace=wrap;html=1;labelBackgroundColor=none;fontColor=#EEEEEE;fontFamily=Helvetica;movable=0;resizable=0;deletable=0;editable=0;locked=1;connectable=0;" parent="i6O-RqYLOl85bxOElG3H-16" vertex="1">
          <mxGeometry y="180" width="200" height="30" as="geometry" />
        </mxCell>
        <mxCell id="i6O-RqYLOl85bxOElG3H-52" value="Doctor:" style="text;strokeColor=none;fillColor=none;align=left;verticalAlign=middle;spacingLeft=4;spacingRight=4;overflow=hidden;points=[[0,0.5],[1,0.5]];portConstraint=eastwest;rotatable=0;whiteSpace=wrap;html=1;labelBackgroundColor=none;fontColor=#EEEEEE;fontFamily=Helvetica;movable=0;resizable=0;deletable=0;editable=0;locked=1;connectable=0;" parent="i6O-RqYLOl85bxOElG3H-16" vertex="1">
          <mxGeometry y="210" width="200" height="30" as="geometry" />
        </mxCell>
        <mxCell id="i6O-RqYLOl85bxOElG3H-54" value="&lt;span style=&quot;white-space: pre;&quot;&gt;&#x9;&lt;/span&gt;update a prescription on a visit" style="text;strokeColor=none;fillColor=none;align=left;verticalAlign=middle;spacingLeft=4;spacingRight=4;overflow=hidden;points=[[0,0.5],[1,0.5]];portConstraint=eastwest;rotatable=0;whiteSpace=wrap;html=1;labelBackgroundColor=none;fontColor=#EEEEEE;fontFamily=Helvetica;movable=0;resizable=0;deletable=0;editable=0;locked=1;connectable=0;" parent="i6O-RqYLOl85bxOElG3H-16" vertex="1">
          <mxGeometry y="240" width="200" height="30" as="geometry" />
        </mxCell>
        <mxCell id="la67KOM5HYceHFR0hL1C-8" value="&lt;span style=&quot;white-space: pre;&quot;&gt;&#x9;&lt;/span&gt;delete a prescription&amp;nbsp;on a visit" style="text;strokeColor=none;fillColor=none;align=left;verticalAlign=middle;spacingLeft=4;spacingRight=4;overflow=hidden;points=[[0,0.5],[1,0.5]];portConstraint=eastwest;rotatable=0;whiteSpace=wrap;html=1;labelBackgroundColor=none;fontColor=#EEEEEE;fontFamily=Helvetica;movable=0;resizable=0;deletable=0;editable=0;locked=1;connectable=0;" parent="i6O-RqYLOl85bxOElG3H-16" vertex="1">
          <mxGeometry y="270" width="200" height="30" as="geometry" />
        </mxCell>
        <mxCell id="i6O-RqYLOl85bxOElG3H-72" value="Doctor / Secretary:" style="text;strokeColor=none;fillColor=none;align=left;verticalAlign=middle;spacingLeft=4;spacingRight=4;overflow=hidden;points=[[0,0.5],[1,0.5]];portConstraint=eastwest;rotatable=0;whiteSpace=wrap;html=1;labelBackgroundColor=none;fontColor=#EEEEEE;fontFamily=Helvetica;movable=0;resizable=0;deletable=0;editable=0;locked=1;connectable=0;" parent="i6O-RqYLOl85bxOElG3H-16" vertex="1">
          <mxGeometry y="300" width="200" height="30" as="geometry" />
        </mxCell>
        <mxCell id="i6O-RqYLOl85bxOElG3H-73" value="&lt;span style=&quot;white-space: pre;&quot;&gt;&#x9;&lt;/span&gt;get all visits" style="text;strokeColor=none;fillColor=none;align=left;verticalAlign=middle;spacingLeft=4;spacingRight=4;overflow=hidden;points=[[0,0.5],[1,0.5]];portConstraint=eastwest;rotatable=0;whiteSpace=wrap;html=1;labelBackgroundColor=none;fontColor=#EEEEEE;fontFamily=Helvetica;movable=0;resizable=0;deletable=0;editable=0;locked=1;connectable=0;" parent="i6O-RqYLOl85bxOElG3H-16" vertex="1">
          <mxGeometry y="330" width="200" height="30" as="geometry" />
        </mxCell>
        <mxCell id="i6O-RqYLOl85bxOElG3H-53" value="&lt;span style=&quot;white-space: pre;&quot;&gt;&#x9;&lt;/span&gt;close a visit" style="text;strokeColor=none;fillColor=none;align=left;verticalAlign=middle;spacingLeft=4;spacingRight=4;overflow=hidden;points=[[0,0.5],[1,0.5]];portConstraint=eastwest;rotatable=0;whiteSpace=wrap;html=1;labelBackgroundColor=none;fontColor=#EEEEEE;fontFamily=Helvetica;movable=0;resizable=0;deletable=0;editable=0;locked=1;connectable=0;" parent="i6O-RqYLOl85bxOElG3H-16" vertex="1">
          <mxGeometry y="360" width="200" height="30" as="geometry" />
        </mxCell>
        <mxCell id="i6O-RqYLOl85bxOElG3H-71" value="Patient:" style="text;strokeColor=none;fillColor=none;align=left;verticalAlign=middle;spacingLeft=4;spacingRight=4;overflow=hidden;points=[[0,0.5],[1,0.5]];portConstraint=eastwest;rotatable=0;whiteSpace=wrap;html=1;labelBackgroundColor=none;fontColor=#EEEEEE;fontFamily=Helvetica;movable=0;resizable=0;deletable=0;editable=0;locked=1;connectable=0;" parent="i6O-RqYLOl85bxOElG3H-16" vertex="1">
          <mxGeometry y="390" width="200" height="30" as="geometry" />
        </mxCell>
        <mxCell id="i6O-RqYLOl85bxOElG3H-66" value="&lt;span style=&quot;white-space: pre;&quot;&gt;&#x9;&lt;/span&gt;get all my visits" style="text;strokeColor=none;fillColor=none;align=left;verticalAlign=middle;spacingLeft=4;spacingRight=4;overflow=hidden;points=[[0,0.5],[1,0.5]];portConstraint=eastwest;rotatable=0;whiteSpace=wrap;html=1;labelBackgroundColor=none;fontColor=#EEEEEE;fontFamily=Helvetica;movable=0;resizable=0;deletable=0;editable=0;locked=1;connectable=0;" parent="i6O-RqYLOl85bxOElG3H-16" vertex="1">
          <mxGeometry y="420" width="200" height="30" as="geometry" />
        </mxCell>
        <mxCell id="i6O-RqYLOl85bxOElG3H-67" value="&lt;span style=&quot;white-space: pre;&quot;&gt;&#x9;&lt;/span&gt;get a visit" style="text;strokeColor=none;fillColor=none;align=left;verticalAlign=middle;spacingLeft=4;spacingRight=4;overflow=hidden;points=[[0,0.5],[1,0.5]];portConstraint=eastwest;rotatable=0;whiteSpace=wrap;html=1;labelBackgroundColor=none;fontColor=#EEEEEE;fontFamily=Helvetica;movable=0;resizable=0;deletable=0;editable=0;locked=1;connectable=0;" parent="i6O-RqYLOl85bxOElG3H-16" vertex="1">
          <mxGeometry y="450" width="200" height="30" as="geometry" />
        </mxCell>
        <mxCell id="i6O-RqYLOl85bxOElG3H-68" value="&lt;span style=&quot;white-space: pre;&quot;&gt;&#x9;&lt;/span&gt;book a visit" style="text;strokeColor=none;fillColor=none;align=left;verticalAlign=middle;spacingLeft=4;spacingRight=4;overflow=hidden;points=[[0,0.5],[1,0.5]];portConstraint=eastwest;rotatable=0;whiteSpace=wrap;html=1;labelBackgroundColor=none;fontColor=#EEEEEE;fontFamily=Helvetica;movable=0;resizable=0;deletable=0;editable=0;locked=1;connectable=0;" parent="i6O-RqYLOl85bxOElG3H-16" vertex="1">
          <mxGeometry y="480" width="200" height="30" as="geometry" />
        </mxCell>
        <mxCell id="i6O-RqYLOl85bxOElG3H-69" value="&lt;span style=&quot;white-space: pre;&quot;&gt;&#x9;&lt;/span&gt;update a visit" style="text;strokeColor=none;fillColor=none;align=left;verticalAlign=middle;spacingLeft=4;spacingRight=4;overflow=hidden;points=[[0,0.5],[1,0.5]];portConstraint=eastwest;rotatable=0;whiteSpace=wrap;html=1;labelBackgroundColor=none;fontColor=#EEEEEE;fontFamily=Helvetica;movable=0;resizable=0;deletable=0;editable=0;locked=1;connectable=0;" parent="i6O-RqYLOl85bxOElG3H-16" vertex="1">
          <mxGeometry y="510" width="200" height="30" as="geometry" />
        </mxCell>
        <mxCell id="i6O-RqYLOl85bxOElG3H-70" value="&lt;span style=&quot;white-space: pre;&quot;&gt;&#x9;&lt;/span&gt;delete a visit" style="text;strokeColor=none;fillColor=none;align=left;verticalAlign=middle;spacingLeft=4;spacingRight=4;overflow=hidden;points=[[0,0.5],[1,0.5]];portConstraint=eastwest;rotatable=0;whiteSpace=wrap;html=1;labelBackgroundColor=none;fontColor=#EEEEEE;fontFamily=Helvetica;movable=0;resizable=0;deletable=0;editable=0;locked=1;connectable=0;" parent="i6O-RqYLOl85bxOElG3H-16" vertex="1">
          <mxGeometry y="540" width="200" height="30" as="geometry" />
        </mxCell>
        <mxCell id="i6O-RqYLOl85bxOElG3H-63" value="Public:" style="text;strokeColor=none;fillColor=none;align=left;verticalAlign=middle;spacingLeft=4;spacingRight=4;overflow=hidden;points=[[0,0.5],[1,0.5]];portConstraint=eastwest;rotatable=0;whiteSpace=wrap;html=1;labelBackgroundColor=none;fontColor=#EEEEEE;fontFamily=Helvetica;movable=0;resizable=0;deletable=0;editable=0;locked=1;connectable=0;" parent="i6O-RqYLOl85bxOElG3H-16" vertex="1">
          <mxGeometry y="570" width="200" height="30" as="geometry" />
        </mxCell>
        <mxCell id="i6O-RqYLOl85bxOElG3H-64" value="&lt;span style=&quot;white-space: pre;&quot;&gt;&#x9;&lt;/span&gt;get prescription&amp;nbsp;on a visit" style="text;strokeColor=none;fillColor=none;align=left;verticalAlign=middle;spacingLeft=4;spacingRight=4;overflow=hidden;points=[[0,0.5],[1,0.5]];portConstraint=eastwest;rotatable=0;whiteSpace=wrap;html=1;labelBackgroundColor=none;fontColor=#EEEEEE;fontFamily=Helvetica;movable=0;resizable=0;deletable=0;editable=0;locked=1;connectable=0;" parent="i6O-RqYLOl85bxOElG3H-16" vertex="1">
          <mxGeometry y="600" width="200" height="30" as="geometry" />
        </mxCell>
        <mxCell id="i6O-RqYLOl85bxOElG3H-23" value="Review" style="swimlane;fontStyle=0;childLayout=stackLayout;horizontal=1;startSize=30;horizontalStack=0;resizeParent=1;resizeParentMax=0;resizeLast=0;collapsible=1;marginBottom=0;whiteSpace=wrap;html=1;labelBackgroundColor=none;fillColor=#09555B;strokeColor=#BAC8D3;fontColor=#EEEEEE;movable=0;resizable=0;rotatable=0;deletable=0;editable=0;locked=1;connectable=0;" parent="1" vertex="1">
          <mxGeometry x="740" y="180" width="200" height="420" as="geometry" />
        </mxCell>
        <mxCell id="i6O-RqYLOl85bxOElG3H-46" value="Administration:" style="text;strokeColor=none;fillColor=none;align=left;verticalAlign=middle;spacingLeft=4;spacingRight=4;overflow=hidden;points=[[0,0.5],[1,0.5]];portConstraint=eastwest;rotatable=0;whiteSpace=wrap;html=1;labelBackgroundColor=none;fontColor=#EEEEEE;movable=0;resizable=0;deletable=0;editable=0;locked=1;connectable=0;" parent="i6O-RqYLOl85bxOElG3H-23" vertex="1">
          <mxGeometry y="30" width="200" height="30" as="geometry" />
        </mxCell>
        <mxCell id="i6O-RqYLOl85bxOElG3H-47" value="&lt;span style=&quot;white-space: pre;&quot;&gt;&#x9;&lt;/span&gt;get all reviews" style="text;strokeColor=none;fillColor=none;align=left;verticalAlign=middle;spacingLeft=4;spacingRight=4;overflow=hidden;points=[[0,0.5],[1,0.5]];portConstraint=eastwest;rotatable=0;whiteSpace=wrap;html=1;labelBackgroundColor=none;fontColor=#EEEEEE;fontFamily=Helvetica;movable=0;resizable=0;deletable=0;editable=0;locked=1;connectable=0;" parent="i6O-RqYLOl85bxOElG3H-23" vertex="1">
          <mxGeometry y="60" width="200" height="30" as="geometry" />
        </mxCell>
        <mxCell id="i6O-RqYLOl85bxOElG3H-48" value="&lt;span style=&quot;white-space: pre;&quot;&gt;&#x9;&lt;/span&gt;get a review" style="text;strokeColor=none;fillColor=none;align=left;verticalAlign=middle;spacingLeft=4;spacingRight=4;overflow=hidden;points=[[0,0.5],[1,0.5]];portConstraint=eastwest;rotatable=0;whiteSpace=wrap;html=1;labelBackgroundColor=none;fontColor=#EEEEEE;fontFamily=Helvetica;movable=0;resizable=0;deletable=0;editable=0;locked=1;connectable=0;" parent="i6O-RqYLOl85bxOElG3H-23" vertex="1">
          <mxGeometry y="90" width="200" height="30" as="geometry" />
        </mxCell>
        <mxCell id="i6O-RqYLOl85bxOElG3H-49" value="&lt;span style=&quot;white-space: pre;&quot;&gt;&#x9;&lt;/span&gt;create a review" style="text;strokeColor=none;fillColor=none;align=left;verticalAlign=middle;spacingLeft=4;spacingRight=4;overflow=hidden;points=[[0,0.5],[1,0.5]];portConstraint=eastwest;rotatable=0;whiteSpace=wrap;html=1;labelBackgroundColor=none;fontColor=#EEEEEE;fontFamily=Helvetica;movable=0;resizable=0;deletable=0;editable=0;locked=1;connectable=0;" parent="i6O-RqYLOl85bxOElG3H-23" vertex="1">
          <mxGeometry y="120" width="200" height="30" as="geometry" />
        </mxCell>
        <mxCell id="i6O-RqYLOl85bxOElG3H-50" value="&lt;span style=&quot;white-space: pre;&quot;&gt;&#x9;&lt;/span&gt;update a review" style="text;strokeColor=none;fillColor=none;align=left;verticalAlign=middle;spacingLeft=4;spacingRight=4;overflow=hidden;points=[[0,0.5],[1,0.5]];portConstraint=eastwest;rotatable=0;whiteSpace=wrap;html=1;labelBackgroundColor=none;fontColor=#EEEEEE;fontFamily=Helvetica;movable=0;resizable=0;deletable=0;editable=0;locked=1;connectable=0;" parent="i6O-RqYLOl85bxOElG3H-23" vertex="1">
          <mxGeometry y="150" width="200" height="30" as="geometry" />
        </mxCell>
        <mxCell id="i6O-RqYLOl85bxOElG3H-51" value="&lt;span style=&quot;white-space: pre;&quot;&gt;&#x9;&lt;/span&gt;delete a review" style="text;strokeColor=none;fillColor=none;align=left;verticalAlign=middle;spacingLeft=4;spacingRight=4;overflow=hidden;points=[[0,0.5],[1,0.5]];portConstraint=eastwest;rotatable=0;whiteSpace=wrap;html=1;labelBackgroundColor=none;fontColor=#EEEEEE;fontFamily=Helvetica;movable=0;resizable=0;deletable=0;editable=0;locked=1;connectable=0;" parent="i6O-RqYLOl85bxOElG3H-23" vertex="1">
          <mxGeometry y="180" width="200" height="30" as="geometry" />
        </mxCell>
        <mxCell id="i6O-RqYLOl85bxOElG3H-56" value="Patient:" style="text;strokeColor=none;fillColor=none;align=left;verticalAlign=middle;spacingLeft=4;spacingRight=4;overflow=hidden;points=[[0,0.5],[1,0.5]];portConstraint=eastwest;rotatable=0;whiteSpace=wrap;html=1;labelBackgroundColor=none;fontColor=#EEEEEE;fontFamily=Helvetica;movable=0;resizable=0;deletable=0;editable=0;locked=1;connectable=0;" parent="i6O-RqYLOl85bxOElG3H-23" vertex="1">
          <mxGeometry y="210" width="200" height="30" as="geometry" />
        </mxCell>
        <mxCell id="i6O-RqYLOl85bxOElG3H-58" value="&lt;span style=&quot;white-space: pre;&quot;&gt;&#x9;&lt;/span&gt;get a review on a visit" style="text;strokeColor=none;fillColor=none;align=left;verticalAlign=middle;spacingLeft=4;spacingRight=4;overflow=hidden;points=[[0,0.5],[1,0.5]];portConstraint=eastwest;rotatable=0;whiteSpace=wrap;html=1;labelBackgroundColor=none;fontColor=#EEEEEE;fontFamily=Helvetica;movable=0;resizable=0;deletable=0;editable=0;locked=1;connectable=0;" parent="i6O-RqYLOl85bxOElG3H-23" vertex="1">
          <mxGeometry y="240" width="200" height="30" as="geometry" />
        </mxCell>
        <mxCell id="i6O-RqYLOl85bxOElG3H-57" value="&lt;span style=&quot;white-space: pre;&quot;&gt;&#x9;&lt;/span&gt;write a review on a visit" style="text;strokeColor=none;fillColor=none;align=left;verticalAlign=middle;spacingLeft=4;spacingRight=4;overflow=hidden;points=[[0,0.5],[1,0.5]];portConstraint=eastwest;rotatable=0;whiteSpace=wrap;html=1;labelBackgroundColor=none;fontColor=#EEEEEE;fontFamily=Helvetica;movable=0;resizable=0;deletable=0;editable=0;locked=1;connectable=0;" parent="i6O-RqYLOl85bxOElG3H-23" vertex="1">
          <mxGeometry y="270" width="200" height="30" as="geometry" />
        </mxCell>
        <mxCell id="i6O-RqYLOl85bxOElG3H-59" value="&lt;span style=&quot;white-space: pre;&quot;&gt;&#x9;&lt;/span&gt;update a review on a visit" style="text;strokeColor=none;fillColor=none;align=left;verticalAlign=middle;spacingLeft=4;spacingRight=4;overflow=hidden;points=[[0,0.5],[1,0.5]];portConstraint=eastwest;rotatable=0;whiteSpace=wrap;html=1;labelBackgroundColor=none;fontColor=#EEEEEE;fontFamily=Helvetica;movable=0;resizable=0;deletable=0;editable=0;locked=1;connectable=0;" parent="i6O-RqYLOl85bxOElG3H-23" vertex="1">
          <mxGeometry y="300" width="200" height="30" as="geometry" />
        </mxCell>
        <mxCell id="i6O-RqYLOl85bxOElG3H-60" value="&lt;span style=&quot;white-space: pre;&quot;&gt;&#x9;&lt;/span&gt;delete a review on a visit" style="text;strokeColor=none;fillColor=none;align=left;verticalAlign=middle;spacingLeft=4;spacingRight=4;overflow=hidden;points=[[0,0.5],[1,0.5]];portConstraint=eastwest;rotatable=0;whiteSpace=wrap;html=1;labelBackgroundColor=none;fontColor=#EEEEEE;fontFamily=Helvetica;movable=0;resizable=0;deletable=0;editable=0;locked=1;connectable=0;" parent="i6O-RqYLOl85bxOElG3H-23" vertex="1">
          <mxGeometry y="330" width="200" height="30" as="geometry" />
        </mxCell>
        <mxCell id="i6O-RqYLOl85bxOElG3H-61" value="All Users:" style="text;strokeColor=none;fillColor=none;align=left;verticalAlign=middle;spacingLeft=4;spacingRight=4;overflow=hidden;points=[[0,0.5],[1,0.5]];portConstraint=eastwest;rotatable=0;whiteSpace=wrap;html=1;labelBackgroundColor=none;fontColor=#EEEEEE;fontFamily=Helvetica;movable=0;resizable=0;deletable=0;editable=0;locked=1;connectable=0;" parent="i6O-RqYLOl85bxOElG3H-23" vertex="1">
          <mxGeometry y="360" width="200" height="30" as="geometry" />
        </mxCell>
        <mxCell id="i6O-RqYLOl85bxOElG3H-62" value="&lt;span style=&quot;white-space: pre;&quot;&gt;&#x9;&lt;/span&gt;get all reviews of a doctor" style="text;strokeColor=none;fillColor=none;align=left;verticalAlign=middle;spacingLeft=4;spacingRight=4;overflow=hidden;points=[[0,0.5],[1,0.5]];portConstraint=eastwest;rotatable=0;whiteSpace=wrap;html=1;labelBackgroundColor=none;fontColor=#EEEEEE;fontFamily=Helvetica;movable=0;resizable=0;deletable=0;editable=0;locked=1;connectable=0;" parent="i6O-RqYLOl85bxOElG3H-23" vertex="1">
          <mxGeometry y="390" width="200" height="30" as="geometry" />
        </mxCell>
        <mxCell id="i6O-RqYLOl85bxOElG3H-28" value="Drug" style="swimlane;fontStyle=0;childLayout=stackLayout;horizontal=1;startSize=30;horizontalStack=0;resizeParent=1;resizeParentMax=0;resizeLast=0;collapsible=1;marginBottom=0;whiteSpace=wrap;html=1;labelBackgroundColor=none;fillColor=#09555B;strokeColor=#BAC8D3;fontColor=#EEEEEE;movable=0;resizable=0;rotatable=0;deletable=0;editable=0;locked=1;connectable=0;" parent="1" vertex="1">
          <mxGeometry x="980" y="180" width="200" height="300" as="geometry" />
        </mxCell>
        <mxCell id="i6O-RqYLOl85bxOElG3H-29" value="Administration:" style="text;strokeColor=none;fillColor=none;align=left;verticalAlign=middle;spacingLeft=4;spacingRight=4;overflow=hidden;points=[[0,0.5],[1,0.5]];portConstraint=eastwest;rotatable=0;whiteSpace=wrap;html=1;labelBackgroundColor=none;fontColor=#EEEEEE;movable=0;resizable=0;deletable=0;editable=0;locked=1;connectable=0;" parent="i6O-RqYLOl85bxOElG3H-28" vertex="1">
          <mxGeometry y="30" width="200" height="30" as="geometry" />
        </mxCell>
        <mxCell id="i6O-RqYLOl85bxOElG3H-30" value="&lt;span style=&quot;white-space: pre;&quot;&gt;&#x9;&lt;/span&gt;get all drugs" style="text;strokeColor=none;fillColor=none;align=left;verticalAlign=middle;spacingLeft=4;spacingRight=4;overflow=hidden;points=[[0,0.5],[1,0.5]];portConstraint=eastwest;rotatable=0;whiteSpace=wrap;html=1;labelBackgroundColor=none;fontColor=#EEEEEE;fontFamily=Helvetica;movable=0;resizable=0;deletable=0;editable=0;locked=1;connectable=0;" parent="i6O-RqYLOl85bxOElG3H-28" vertex="1">
          <mxGeometry y="60" width="200" height="30" as="geometry" />
        </mxCell>
        <mxCell id="i6O-RqYLOl85bxOElG3H-31" value="&lt;span style=&quot;white-space: pre;&quot;&gt;&#x9;&lt;/span&gt;get a drug" style="text;strokeColor=none;fillColor=none;align=left;verticalAlign=middle;spacingLeft=4;spacingRight=4;overflow=hidden;points=[[0,0.5],[1,0.5]];portConstraint=eastwest;rotatable=0;whiteSpace=wrap;html=1;labelBackgroundColor=none;fontColor=#EEEEEE;fontFamily=Helvetica;movable=0;resizable=0;deletable=0;editable=0;locked=1;connectable=0;" parent="i6O-RqYLOl85bxOElG3H-28" vertex="1">
          <mxGeometry y="90" width="200" height="30" as="geometry" />
        </mxCell>
        <mxCell id="i6O-RqYLOl85bxOElG3H-33" value="&lt;span style=&quot;white-space: pre;&quot;&gt;&#x9;&lt;/span&gt;create a drug" style="text;strokeColor=none;fillColor=none;align=left;verticalAlign=middle;spacingLeft=4;spacingRight=4;overflow=hidden;points=[[0,0.5],[1,0.5]];portConstraint=eastwest;rotatable=0;whiteSpace=wrap;html=1;labelBackgroundColor=none;fontColor=#EEEEEE;fontFamily=Helvetica;movable=0;resizable=0;deletable=0;editable=0;locked=1;connectable=0;" parent="i6O-RqYLOl85bxOElG3H-28" vertex="1">
          <mxGeometry y="120" width="200" height="30" as="geometry" />
        </mxCell>
        <mxCell id="i6O-RqYLOl85bxOElG3H-34" value="&lt;span style=&quot;white-space: pre;&quot;&gt;&#x9;&lt;/span&gt;update a drug" style="text;strokeColor=none;fillColor=none;align=left;verticalAlign=middle;spacingLeft=4;spacingRight=4;overflow=hidden;points=[[0,0.5],[1,0.5]];portConstraint=eastwest;rotatable=0;whiteSpace=wrap;html=1;labelBackgroundColor=none;fontColor=#EEEEEE;fontFamily=Helvetica;movable=0;resizable=0;deletable=0;editable=0;locked=1;connectable=0;" parent="i6O-RqYLOl85bxOElG3H-28" vertex="1">
          <mxGeometry y="150" width="200" height="30" as="geometry" />
        </mxCell>
        <mxCell id="i6O-RqYLOl85bxOElG3H-35" value="&lt;span style=&quot;white-space: pre;&quot;&gt;&#x9;&lt;/span&gt;delete a drug" style="text;strokeColor=none;fillColor=none;align=left;verticalAlign=middle;spacingLeft=4;spacingRight=4;overflow=hidden;points=[[0,0.5],[1,0.5]];portConstraint=eastwest;rotatable=0;whiteSpace=wrap;html=1;labelBackgroundColor=none;fontColor=#EEEEEE;fontFamily=Helvetica;movable=0;resizable=0;deletable=0;editable=0;locked=1;connectable=0;" parent="i6O-RqYLOl85bxOElG3H-28" vertex="1">
          <mxGeometry y="180" width="200" height="30" as="geometry" />
        </mxCell>
        <mxCell id="la67KOM5HYceHFR0hL1C-1" value="Doctor:" style="text;strokeColor=none;fillColor=none;align=left;verticalAlign=middle;spacingLeft=4;spacingRight=4;overflow=hidden;points=[[0,0.5],[1,0.5]];portConstraint=eastwest;rotatable=0;whiteSpace=wrap;html=1;labelBackgroundColor=none;fontColor=#EEEEEE;fontFamily=Helvetica;movable=0;resizable=0;deletable=0;editable=0;locked=1;connectable=0;" parent="i6O-RqYLOl85bxOElG3H-28" vertex="1">
          <mxGeometry y="210" width="200" height="30" as="geometry" />
        </mxCell>
        <mxCell id="la67KOM5HYceHFR0hL1C-2" value="&lt;span style=&quot;white-space: pre;&quot;&gt;&#x9;&lt;/span&gt;get all drugs" style="text;strokeColor=none;fillColor=none;align=left;verticalAlign=middle;spacingLeft=4;spacingRight=4;overflow=hidden;points=[[0,0.5],[1,0.5]];portConstraint=eastwest;rotatable=0;whiteSpace=wrap;html=1;labelBackgroundColor=none;fontColor=#EEEEEE;fontFamily=Helvetica;movable=0;resizable=0;deletable=0;editable=0;locked=1;connectable=0;" parent="i6O-RqYLOl85bxOElG3H-28" vertex="1">
          <mxGeometry y="240" width="200" height="30" as="geometry" />
        </mxCell>
        <mxCell id="la67KOM5HYceHFR0hL1C-3" value="&lt;span style=&quot;white-space: pre;&quot;&gt;&#x9;&lt;/span&gt;get a drug" style="text;strokeColor=none;fillColor=none;align=left;verticalAlign=middle;spacingLeft=4;spacingRight=4;overflow=hidden;points=[[0,0.5],[1,0.5]];portConstraint=eastwest;rotatable=0;whiteSpace=wrap;html=1;labelBackgroundColor=none;fontColor=#EEEEEE;fontFamily=Helvetica;movable=0;resizable=0;deletable=0;editable=0;locked=1;connectable=0;" parent="i6O-RqYLOl85bxOElG3H-28" vertex="1">
          <mxGeometry y="270" width="200" height="30" as="geometry" />
        </mxCell>
      </root>
    </mxGraphModel>
  </diagram>
</mxfile>
